<svg width="16" height="16" viewBox="0 0 16 16" fill="none" xmlns="http://www.w3.org/2000/svg">
<g clip-path="url(#clip0_93_53)">
<path d="M3.65398 1.328C3.59495 1.25206 3.52043 1.18955 3.43538 1.14463C3.35034 1.0997 3.2567 1.07338 3.1607 1.06742C3.0647 1.06146 2.96853 1.076 2.87858 1.11006C2.78863 1.14413 2.70695 1.19694 2.63898 1.265L1.60498 2.3C1.12198 2.784 0.943983 3.469 1.15498 4.07C2.03171 6.55711 3.45614 8.81541 5.32298 10.678C7.18557 12.5448 9.44387 13.9693 11.931 14.846C12.532 15.057 13.217 14.879 13.701 14.396L14.735 13.362C14.803 13.294 14.8559 13.2124 14.8899 13.1224C14.924 13.0325 14.9385 12.9363 14.9326 12.8403C14.9266 12.7443 14.9003 12.6506 14.8554 12.5656C14.8104 12.4805 14.7479 12.406 14.672 12.347L12.365 10.553C12.2838 10.4902 12.1894 10.4466 12.089 10.4255C11.9885 10.4044 11.8846 10.4062 11.785 10.431L9.59498 10.978C9.30264 11.0506 8.99651 11.0464 8.70623 10.966C8.41594 10.8856 8.15132 10.7316 7.93798 10.519L5.48198 8.062C5.26916 7.84876 5.115 7.58419 5.03441 7.2939C4.95382 7.00361 4.94954 6.69743 5.02198 6.405L5.56998 4.215C5.59474 4.11539 5.59663 4.01146 5.5755 3.91101C5.55437 3.81056 5.51078 3.7162 5.44798 3.635L3.65398 1.328ZM1.88398 0.511C2.05898 0.33595 2.26921 0.200131 2.50072 0.112562C2.73223 0.0249924 2.97973 -0.0123229 3.22676 0.00309335C3.4738 0.0185096 3.71474 0.0863048 3.93356 0.201977C4.15239 0.317649 4.34411 0.478552 4.49598 0.674L6.28998 2.98C6.61898 3.403 6.73498 3.954 6.60498 4.474L6.05798 6.664C6.0299 6.77744 6.03153 6.8962 6.0627 7.00883C6.09388 7.12146 6.15356 7.22415 6.23598 7.307L8.69298 9.764C8.77593 9.84659 8.87879 9.90637 8.99161 9.93755C9.10443 9.96873 9.2234 9.97027 9.33698 9.942L11.526 9.395C11.7826 9.33121 12.0504 9.32642 12.3091 9.38097C12.5679 9.43553 12.8109 9.54802 13.02 9.71L15.326 11.504C16.155 12.149 16.231 13.374 15.489 14.115L14.455 15.149C13.715 15.889 12.609 16.214 11.578 15.851C8.93865 14.9236 6.54252 13.4128 4.56798 11.431C2.58636 9.45675 1.07553 7.06097 0.147983 4.422C-0.214017 3.392 0.110983 2.285 0.850983 1.545L1.88398 0.511Z" fill="white"/>
</g>
<defs>
<clipPath id="clip0_93_53">
<rect width="16" height="16" fill="white"/>
</clipPath>
</defs>
</svg>
